<?xml version="1.0" standalone="no"?>
<!DOCTYPE svg PUBLIC "-//W3C//DTD SVG 20010904//EN"
 "http://www.w3.org/TR/2001/REC-SVG-20010904/DTD/svg10.dtd">
<svg version="1.0" xmlns="http://www.w3.org/2000/svg"
 width="239.000000pt" height="239.000000pt" viewBox="0 0 239.000000 239.000000"
 preserveAspectRatio="xMidYMid meet">
<metadata>
Created by potrace 1.14, written by Peter Selinger 2001-2017
</metadata>
<g transform="translate(0.000000,239.000000) scale(0.100000,-0.100000)"
fill="#000000" stroke="none">
<path d="M708 2013 c0 -27 0 -60 1 -75 3 -33 -15 -68 -34 -68 -8 0 -21 -13
-30 -30 -15 -28 -19 -30 -75 -30 -56 0 -60 -2 -57 -22 3 -34 -29 -35 -45 -1
-12 25 -18 28 -55 25 -38 -3 -43 0 -57 26 -8 16 -26 37 -40 46 -21 13 -26 25
-26 56 0 46 -30 73 -68 63 l-23 -6 2 -411 c2 -516 -8 -696 -39 -648 -6 9 -29
10 -85 6 l-77 -7 0 -468 0 -469 204 0 204 0 6 53 c4 28 6 77 6 108 -1 42 4 62
20 82 21 26 21 34 15 157 -5 86 -4 130 3 130 6 0 8 24 4 65 -4 56 -2 66 13 72
13 4 23 0 33 -15 8 -12 23 -22 33 -22 27 0 34 -43 15 -93 -9 -24 -16 -55 -16
-69 0 -15 -4 -38 -9 -52 -7 -17 -7 -26 1 -28 16 -6 1 -58 -16 -58 -19 0 -28
-28 -12 -37 13 -7 20 -45 17 -83 -1 -12 -5 -11 -16 4 -8 11 -15 18 -16 15 -7
-28 -5 -130 2 -134 5 -4 6 -17 3 -30 -3 -13 -3 -33 1 -44 7 -24 45 -29 45 -6
0 8 5 15 10 15 6 0 10 -7 10 -15 0 -11 12 -15 44 -15 38 0 45 3 49 23 l4 22 2
-22 c1 -17 7 -23 26 -23 21 0 25 5 25 31 0 17 4 28 10 24 6 -3 10 -18 10 -32
l0 -26 19 24 c10 13 20 33 22 44 3 11 11 20 19 20 11 0 14 -9 12 -31 -3 -32
-3 -32 57 -39 68 -8 128 8 137 37 3 10 9 18 13 18 5 0 11 23 14 51 4 29 13 59
21 68 8 9 18 37 22 61 4 25 10 47 14 50 4 3 15 22 23 42 9 21 27 43 42 50 23
10 28 8 55 -22 24 -27 30 -42 30 -81 0 -38 4 -51 19 -59 15 -8 21 -23 23 -60
2 -28 8 -49 13 -48 6 2 9 45 7 111 l-2 107 58 0 c33 0 87 3 121 6 51 6 61 10
61 26 0 10 11 24 25 30 13 6 27 19 30 30 4 11 16 18 31 18 13 0 29 9 36 20 7
11 23 20 34 20 20 0 23 6 26 58 3 48 0 61 -19 85 -17 22 -23 41 -23 81 0 44 4
56 28 79 15 15 31 27 35 27 8 0 8 -2 11 -150 1 -88 3 -95 21 -95 15 0 20 6 18
25 -1 14 -5 57 -8 95 -3 39 -6 81 -6 95 0 14 -7 33 -16 42 -20 22 -9 38 28 38
16 0 30 6 30 13 4 39 -10 57 -48 57 -35 0 -38 20 -7 46 44 37 84 29 109 -21
18 -35 20 -60 20 -201 0 -111 4 -165 12 -175 7 -8 10 -24 7 -36 -4 -15 3 -26
25 -42 28 -20 31 -28 31 -74 0 -62 -10 -81 -37 -73 -22 7 -47 52 -38 67 4 5 1
17 -4 26 -10 17 -10 17 -11 -1 0 -16 -3 -17 -12 -8 -9 9 -13 55 -15 140 -1 70
-6 128 -12 130 -14 5 -21 -42 -23 -155 -1 -57 -5 -103 -10 -103 -4 0 -8 10 -9
23 -1 17 -3 15 -11 -10 -6 -18 -17 -33 -24 -33 -22 0 -16 -16 10 -34 18 -12
26 -12 29 -3 3 6 6 -1 6 -18 1 -35 9 -49 34 -58 14 -5 17 -19 17 -72 0 -58 -2
-65 -20 -65 -16 0 -20 -7 -22 -37 0 -21 -1 -46 0 -55 1 -10 -7 -22 -18 -28
-11 -6 -20 -20 -20 -31 0 -13 -6 -19 -16 -17 -10 2 -19 -3 -21 -9 -3 -9 8 -13
36 -13 28 0 41 4 41 14 0 7 10 16 21 19 19 5 21 11 16 41 -6 38 1 43 33 26 12
-6 21 -26 26 -55 5 -39 10 -45 30 -45 23 0 24 2 24 80 0 71 2 81 18 78 15 -3
17 6 17 62 1 59 2 65 23 68 24 4 28 29 14 106 -9 48 -31 61 -30 16 1 -31 -7
-48 -18 -37 -4 3 -8 37 -10 74 -3 37 -9 72 -14 77 -18 18 -11 62 14 83 20 18
23 28 20 64 -3 24 -8 91 -13 149 -5 58 -11 112 -15 120 -9 23 7 41 40 43 28 2
29 0 36 -58 4 -33 4 -152 -1 -265 -4 -113 -7 -210 -4 -215 8 -23 43 -36 65
-24 18 10 24 8 35 -7 7 -10 13 -31 13 -47 0 -16 9 -40 20 -54 11 -14 20 -35
20 -47 0 -12 15 -37 34 -55 19 -18 36 -45 39 -60 6 -29 93 -121 115 -121 9 0
12 93 12 430 0 379 -2 430 -15 430 -9 0 -20 12 -26 28 -5 15 -16 32 -24 38
-21 16 -9 81 16 87 21 6 26 41 7 54 -7 4 -96 9 -198 10 -270 3 -275 4 -275 30
0 35 -18 32 -27 -4 l-8 -32 -138 -3 c-132 -3 -137 -4 -140 -25 -2 -13 -12 -23
-24 -25 -15 -2 -25 -15 -33 -43 l-11 -40 -13 38 c-11 31 -17 37 -42 37 -24 0
-29 4 -29 24 0 21 -6 24 -52 30 -71 8 -151 7 -164 -2 -6 -4 -13 -15 -17 -24
-3 -10 -15 -18 -26 -18 -23 0 -41 -28 -41 -64 0 -14 -4 -28 -10 -31 -9 -6 -17
16 -22 65 -2 17 -10 26 -26 28 -13 2 -27 14 -32 28 -9 24 -10 24 -160 24 -112
0 -152 -3 -155 -12 -2 -7 -9 -40 -16 -73 -10 -50 -13 -56 -20 -37 -10 26 -24
28 -38 5 -12 -23 -25 -11 -16 16 3 12 15 21 25 21 28 0 45 68 18 72 -32 3 -91
6 -185 7 -97 1 -102 2 -105 24 -2 16 -11 23 -30 25 -36 4 -39 19 -36 172 3
121 4 125 26 128 24 4 26 15 22 108 -2 60 4 66 68 68 40 1 47 4 52 26 8 34 41
33 58 -2 12 -25 19 -28 62 -28 27 0 51 -4 55 -10 3 -5 8 -28 10 -52 2 -23 9
-44 15 -46 25 -9 40 -36 40 -73 0 -37 2 -39 30 -39 l30 0 0 314 c0 314 0 315
-22 330 -34 24 -38 20 -40 -31z m638 -1044 c7 -12 -15 -31 -28 -23 -4 3 -8 12
-8 20 0 17 26 19 36 3z m-943 -30 c-4 -16 -8 -17 -14 -7 -13 19 -11 28 5 28 9
0 12 -7 9 -21z m62 11 c-3 -5 -10 -10 -16 -10 -5 0 -9 5 -9 10 0 6 7 10 16 10
8 0 12 -4 9 -10z m50 0 c-3 -5 -11 -10 -16 -10 -6 0 -7 5 -4 10 3 6 11 10 16
10 6 0 7 -4 4 -10z m85 1 c0 -17 -15 -19 -35 -5 -18 13 -18 14 8 14 15 0 27
-4 27 -9z m7 -117 c2 -7 -16 -13 -49 -17 -61 -6 -66 -4 -48 18 15 18 91 17 97
-1z m30 -56 c-3 -8 -6 -5 -6 6 -1 11 2 17 5 13 3 -3 4 -12 1 -19z m-14 -125
c-4 -17 -4 -85 -1 -115 5 -46 18 -43 18 3 0 57 20 89 44 70 17 -14 23 -105 7
-115 -4 -3 -10 -36 -13 -74 -6 -80 -13 -98 -33 -82 -20 17 -35 -18 -35 -80 0
-35 -8 -65 -25 -98 -23 -44 -30 -43 -25 1 1 10 -3 24 -8 30 -5 7 -12 40 -15
74 -6 56 -5 63 11 63 10 0 28 7 40 16 23 15 23 19 17 137 -3 67 -8 137 -11
155 -4 29 -2 33 13 30 10 -2 17 -9 16 -15z m821 -179 c10 -26 -2 -34 -49 -34
-46 0 -63 11 -42 28 28 23 83 27 91 6z m-701 -131 c-3 -54 -11 -101 -17 -106
-7 -5 -5 -11 7 -18 21 -12 23 -74 3 -95 -13 -12 -16 -11 -22 8 -4 13 -8 34 -9
48 -1 14 -6 62 -10 108 -7 71 -5 87 11 117 33 62 43 45 37 -62z m1124 65 c-3
-8 -6 -5 -6 6 -1 11 2 17 5 13 3 -3 4 -12 1 -19z m-1203 -206 c-6 -11 -10 3
-14 43 -3 33 -3 65 0 70 8 17 22 -95 14 -113z m-7 -134 c-2 -13 -4 -3 -4 22 0
25 2 35 4 23 2 -13 2 -33 0 -45z"/>
<path d="M1130 1955 c0 -17 -7 -28 -21 -33 -11 -4 -26 -19 -32 -32 -7 -14 -23
-26 -35 -28 -12 -2 -23 -9 -24 -15 0 -7 -2 -16 -3 -22 -2 -5 -3 -27 -4 -48 -1
-43 -24 -59 -49 -33 -15 15 -19 32 -21 92 -1 20 -7 22 -56 23 l-55 0 0 -85 0
-85 30 -11 c38 -13 41 -27 38 -168 l-3 -115 -30 -9 c-29 -8 -31 -13 -33 -60
-1 -27 -6 -54 -11 -59 -4 -4 -41 -7 -82 -5 -68 3 -74 5 -77 26 -3 16 -12 25
-33 29 -21 4 -29 11 -29 27 0 11 -4 26 -8 31 -4 6 -59 10 -132 10 -117 0 -125
-1 -125 -19 0 -17 8 -20 47 -21 52 -2 78 -17 78 -46 0 -16 8 -19 44 -19 60 0
76 -8 76 -36 0 -19 5 -24 25 -24 17 0 29 -9 40 -30 l16 -31 86 3 87 3 8 32 c6
24 12 30 27 26 15 -4 20 1 23 24 2 20 9 29 26 31 14 2 22 10 22 23 0 12 10 23
25 29 17 6 25 17 25 32 0 100 12 233 21 244 6 8 20 14 30 14 13 0 19 7 19 24
0 19 6 25 27 28 27 3 27 4 27 83 l1 80 58 3 57 3 0 34 c0 30 -3 35 -23 35 -29
0 -47 18 -47 47 0 14 -6 23 -15 23 -9 0 -15 -9 -15 -25z m40 -65 c0 -5 -4 -10
-9 -10 -6 0 -13 5 -16 10 -3 6 1 10 9 10 9 0 16 -4 16 -10z"/>
<path d="M1304 1935 c-3 -18 -4 -171 -2 -340 2 -235 6 -309 16 -313 8 -2 12
11 12 47 0 53 1 54 52 65 27 6 27 6 30 109 l3 102 103 3 c98 3 103 4 114 27 6
13 20 25 32 27 20 3 21 8 21 123 0 117 -1 120 -22 123 -15 2 -23 10 -23 23 0
11 -6 21 -12 24 -7 2 -82 6 -165 8 l-153 3 -6 -31z m269 -114 c5 -5 7 -26 5
-47 l-3 -39 -80 0 -80 0 -3 47 c-3 46 -3 47 30 51 43 6 120 -1 131 -12z"/>
<path d="M1768 1953 c-16 -4 -18 -20 -18 -151 0 -81 -2 -245 -5 -365 l-5 -218
33 3 c31 3 32 5 35 51 3 50 21 69 45 49 9 -8 33 -8 77 -2 36 5 95 10 133 10
55 0 67 3 67 16 0 9 -9 18 -21 21 -12 4 -22 17 -26 34 -5 24 -11 29 -37 30
-54 1 -140 9 -164 14 -20 5 -22 9 -16 48 4 23 8 44 10 46 2 2 36 6 75 9 60 4
72 8 77 24 2 11 15 23 27 28 27 10 40 49 19 56 -8 2 -21 6 -29 9 -8 2 -15 14
-15 25 0 18 -6 20 -68 20 -86 0 -105 12 -100 65 l3 40 99 3 99 3 39 42 c42 47
46 62 21 75 -19 10 -326 23 -355 15z"/>
<path d="M1192 1813 c5 -26 38 -29 38 -4 0 15 -6 21 -21 21 -14 0 -19 -5 -17
-17z"/>
<path d="M1858 1256 c-11 -26 -3 -69 10 -50 4 6 17 14 30 18 15 5 22 15 22 32
0 34 -46 34 -62 0z"/>
<path d="M1616 414 c-17 -12 -17 -14 -4 -14 9 0 20 5 23 11 11 17 2 18 -19 3z"/>
<path d="M500 386 c0 -22 3 -27 11 -19 8 8 8 16 0 30 -9 16 -10 14 -11 -11z"/>
<path d="M2100 269 c0 -12 -8 -23 -20 -26 -14 -4 -19 -13 -18 -32 4 -67 -2
-91 -22 -91 -18 0 -20 -7 -20 -60 0 -58 1 -60 26 -60 26 0 26 2 22 45 -5 38
-3 44 8 34 24 -20 44 -3 43 38 -1 21 -4 49 -8 63 -4 15 -2 38 6 57 17 42 16
53 -2 53 -9 0 -15 -9 -15 -21z"/>
<path d="M1754 249 c-10 -17 13 -36 27 -22 12 12 4 33 -11 33 -5 0 -12 -5 -16
-11z"/>
<path d="M1710 206 c0 -18 16 -29 30 -21 13 8 1 35 -16 35 -8 0 -14 -6 -14
-14z"/>
<path d="M1160 141 c0 -20 -25 -35 -41 -25 -5 3 -9 -22 -9 -55 l0 -61 75 2
c66 1 75 3 75 20 0 14 -8 18 -39 18 l-39 0 -7 50 c-4 27 -4 54 0 60 3 5 1 10
-4 10 -6 0 -11 -9 -11 -19z"/>
<path d="M1421 111 l-24 -18 22 -22 c18 -18 29 -21 59 -15 46 8 52 12 52 30 0
9 -11 14 -30 14 -18 0 -33 6 -36 15 -8 19 -14 19 -43 -4z"/>
<path d="M1632 43 c2 -10 10 -18 18 -18 8 0 16 8 18 18 2 12 -3 17 -18 17 -15
0 -20 -5 -18 -17z"/>
<path d="M2137 34 c-8 -8 3 -34 14 -34 5 0 9 9 9 20 0 19 -11 26 -23 14z"/>
<path d="M1544 8 c-3 -4 13 -8 35 -8 23 0 41 4 41 9 0 11 -69 10 -76 -1z"/>
</g>
</svg>
